<?xml version="1.0" encoding="iso-8859-1"?>
<!-- Uploaded to: SVG Repo, www.svgrepo.com, Generator: SVG Repo Mixer Tools -->
<!DOCTYPE svg PUBLIC "-//W3C//DTD SVG 1.1//EN" "http://www.w3.org/Graphics/SVG/1.1/DTD/svg11.dtd">
<svg fill="rgb(202 77 24 / var(--tw-text-opacity, 1))" height="800px" width="800px" version="1.1" id="Capa_1" xmlns="http://www.w3.org/2000/svg" xmlns:xlink="http://www.w3.org/1999/xlink"
	 viewBox="0 0 511 511" xml:space="preserve">
<g>
	<path d="M135.5,472c-1.97,0-3.91,0.8-5.3,2.2c-1.4,1.39-2.2,3.33-2.2,5.3c0,1.98,0.8,3.91,2.2,5.3c1.39,1.4,3.33,2.2,5.3,2.2
		c1.97,0,3.91-0.8,5.3-2.2c1.4-1.39,2.2-3.32,2.2-5.3s-0.8-3.91-2.2-5.3C139.41,472.8,137.47,472,135.5,472z"/>
	<path d="M370.2,474.2c-1.4,1.39-2.2,3.33-2.2,5.3c0,1.98,0.8,3.91,2.2,5.3c1.4,1.4,3.33,2.2,5.3,2.2c1.97,0,3.91-0.8,5.3-2.2
		c1.4-1.39,2.2-3.32,2.2-5.3s-0.8-3.91-2.2-5.3c-1.39-1.4-3.33-2.2-5.3-2.2C373.53,472,371.59,472.8,370.2,474.2z"/>
	<path d="M351.5,472h-192c-4.142,0-7.5,3.358-7.5,7.5s3.358,7.5,7.5,7.5h192c4.142,0,7.5-3.358,7.5-7.5S355.642,472,351.5,472z"/>
	<path d="M503.5,440H495v-64.5c0-8.547-6.953-15.5-15.5-15.5H431v-29.873c0-2.271,0.884-4.405,2.49-6.011l9.313-9.313
		c2.929-2.929,2.929-7.678,0-10.606c-2.929-2.929-7.678-2.929-10.606,0l-9.313,9.313c-4.439,4.438-6.883,10.34-6.883,16.617V360
		h-16.5c-8.547,0-15.5,6.953-15.5,15.5V392h-17v-49h8.5c4.142,0,7.5-3.358,7.5-7.5s-3.358-7.5-7.5-7.5h-32
		c-4.142,0-7.5,3.358-7.5,7.5s3.358,7.5,7.5,7.5h8.5v49h-8.999l0-8.501C343,370.542,332.458,360,319.5,360H303.5
		c-12.957,0-23.5,10.542-23.5,23.5l-0.001,8.5H239v-16.5c0-8.547-6.953-15.5-15.5-15.5H215V15.5C215,6.953,208.047,0,199.5,0h-16
		C174.953,0,168,6.953,168,15.5V32h-8.5c-8.547,0-15.5,6.953-15.5,15.5v164.687c0,4.14,1.612,8.032,4.54,10.96l19.46,19.46V360h-9
		v-24.5c0-12.958-10.542-23.5-23.5-23.5h-112C10.542,312,0,322.542,0,335.5v80C0,428.458,10.542,439,23.5,439H152v9h-16.5
		c-17.369,0-31.5,14.131-31.5,31.5s14.131,31.5,31.5,31.5h240c17.369,0,31.5-14.131,31.5-31.5S392.869,448,375.5,448H359v-9h37.394
		l13.803,13.803c1.406,1.407,3.314,2.197,5.303,2.197h88c4.142,0,7.5-3.358,7.5-7.5S507.642,440,503.5,440z M287.498,407
		c4.142,0,7.499-3.357,7.5-7.498L295,383.5c0-4.687,3.813-8.5,8.5-8.5H319.5c4.687,0,8.5,3.813,8.5,8.5l0.001,16.001
		c0,4.142,3.358,7.499,7.5,7.499H384v17H239v-17H287.498z M183,47h17v17h-17V47z M183,15.5c0-0.276,0.224-0.5,0.5-0.5h16
		c0.276,0,0.5,0.224,0.5,0.5V32h-17V15.5z M159.146,212.54c-0.094-0.095-0.146-0.22-0.146-0.354V47.5c0-0.276,0.224-0.5,0.5-0.5h8.5
		v174.394L159.146,212.54z M183,239.503c0-0.002,0-0.003,0-0.005V79h17v281h-17V239.503z M223.5,375c0.276,0,0.5,0.224,0.5,0.5V424
		h-65v-49H223.5z M144,424H23.5c-4.687,0-8.5-3.813-8.5-8.5v-80c0-4.687,3.813-8.5,8.5-8.5h112c4.687,0,8.5,3.813,8.5,8.5V424z
		 M392,479.5c0,9.098-7.402,16.5-16.5,16.5h-240c-9.098,0-16.5-7.402-16.5-16.5s7.402-16.5,16.5-16.5h240
		C384.598,463,392,470.402,392,479.5z M344,448H167v-9h177V448z M404.803,426.197c-1.406-1.407-3.314-2.197-5.303-2.197H399v-48.5
		c0-0.276,0.224-0.5,0.5-0.5h80c0.276,0,0.5,0.224,0.5,0.5V440h-61.394L404.803,426.197z"/>
	<path d="M63.5,344h-24c-4.142,0-7.5,3.358-7.5,7.5s3.358,7.5,7.5,7.5h24c4.142,0,7.5-3.358,7.5-7.5S67.642,344,63.5,344z"/>
	<path d="M119.5,344h-24c-4.142,0-7.5,3.358-7.5,7.5s3.358,7.5,7.5,7.5h24c4.142,0,7.5-3.358,7.5-7.5S123.642,344,119.5,344z"/>
	<path d="M431.5,384h-16c-4.142,0-7.5,3.358-7.5,7.5s3.358,7.5,7.5,7.5h16c4.142,0,7.5-3.358,7.5-7.5S435.642,384,431.5,384z"/>
	<path d="M431.5,408h-16c-4.142,0-7.5,3.358-7.5,7.5s3.358,7.5,7.5,7.5h16c4.142,0,7.5-3.358,7.5-7.5S435.642,408,431.5,408z"/>
</g>
</svg>