<?xml version="1.0" encoding="iso-8859-1"?>
<!-- Uploaded to: SVG Repo, www.svgrepo.com, Generator: SVG Repo Mixer Tools -->
<svg fill="#000000" height="800px" width="800px" version="1.1" id="Capa_1" xmlns="http://www.w3.org/2000/svg" xmlns:xlink="http://www.w3.org/1999/xlink" 
	 viewBox="0 0 463 463" xml:space="preserve">
<path d="M327.5,0h-192c-4.142,0-7.5,3.358-7.5,7.5s3.358,7.5,7.5,7.5h8.5v24.5c0,12.958,10.542,23.5,23.5,23.5h8.5v17h-8.5
	c-4.142,0-7.5,3.358-7.5,7.5v32c0,1.049,0.22,2.087,0.646,3.046l32,72c1.204,2.708,3.89,4.454,6.854,4.454h8.5v24.5
	c0,10.336,6.71,19.128,16,22.266v21.099l-11.854,5.927c-3.705,1.852-5.207,6.357-3.354,10.062c1.314,2.628,3.962,4.147,6.714,4.147
	c1.127,0,2.271-0.255,3.348-0.793l5.146-2.573v15.23l-11.854,5.927c-3.705,1.852-5.207,6.357-3.354,10.062
	c1.314,2.628,3.962,4.147,6.714,4.147c1.127,0,2.271-0.255,3.348-0.793l5.146-2.573v15.23l-11.854,5.927
	c-3.705,1.852-5.207,6.357-3.354,10.062c1.314,2.628,3.962,4.147,6.714,4.147c1.127,0,2.271-0.255,3.348-0.793l5.146-2.573v15.23
	l-11.854,5.927c-3.705,1.852-5.207,6.357-3.354,10.062c1.314,2.628,3.962,4.147,6.714,4.147c1.127,0,2.271-0.255,3.348-0.793
	l5.146-2.573v15.23l-11.854,5.927c-3.705,1.852-5.207,6.357-3.354,10.062c1.314,2.628,3.962,4.147,6.714,4.147
	c1.127,0,2.271-0.255,3.348-0.793l5.146-2.573v15.23l-11.854,5.927c-3.705,1.852-5.207,6.357-3.354,10.062
	c1.314,2.628,3.962,4.147,6.714,4.147c1.127,0,2.271-0.255,3.348-0.793l5.146-2.573V455.5c0,4.142,3.358,7.5,7.5,7.5
	s7.5-3.358,7.5-7.5v-19.365l11.854-5.927c3.705-1.852,5.207-6.357,3.354-10.062c-1.852-3.705-6.357-5.208-10.062-3.354L239,419.365
	v-15.23l11.854-5.927c3.705-1.852,5.207-6.357,3.354-10.062c-1.852-3.705-6.357-5.208-10.062-3.354L239,387.365v-15.23l11.854-5.927
	c3.705-1.852,5.207-6.357,3.354-10.062c-1.852-3.706-6.357-5.208-10.062-3.354L239,355.365v-15.23l11.854-5.927
	c3.705-1.852,5.207-6.357,3.354-10.062c-1.852-3.705-6.357-5.207-10.062-3.354L239,323.365v-15.23l11.854-5.927
	c3.705-1.852,5.207-6.357,3.354-10.062c-1.852-3.705-6.357-5.207-10.062-3.354L239,291.365v-15.23l11.854-5.927
	c3.705-1.852,5.207-6.357,3.354-10.062c-1.852-3.705-6.357-5.208-10.062-3.354L239,259.365v-13.599c9.29-3.138,16-11.93,16-22.266
	V199h8.5c2.964,0,5.65-1.746,6.854-4.454l32-72c0.426-0.959,0.646-1.997,0.646-3.046v-32c0-4.142-3.358-7.5-7.5-7.5H287V63h8.5
	c12.958,0,23.5-10.542,23.5-23.5V15h8.5c4.142,0,7.5-3.358,7.5-7.5S331.642,0,327.5,0z M240,223.5c0,4.687-3.813,8.5-8.5,8.5
	s-8.5-3.813-8.5-8.5V199h17V223.5z M258.626,184h-54.251l-25.334-57h104.918L258.626,184z M288,112H175V95h113V112z M272,80h-81V63
	h81V80z M304,39.5c0,4.687-3.813,8.5-8.5,8.5h-128c-4.687,0-8.5-3.813-8.5-8.5V15h145V39.5z"/>
</svg>