<?xml version="1.0" standalone="no"?>
<!DOCTYPE svg PUBLIC "-//W3C//DTD SVG 20010904//EN"
 "http://www.w3.org/TR/2001/REC-SVG-20010904/DTD/svg10.dtd">
<svg version="1.0" xmlns="http://www.w3.org/2000/svg"
 width="822.000000pt" height="1280.000000pt" viewBox="0 0 822.000000 1280.000000"
 preserveAspectRatio="xMidYMid meet">
<metadata>
Created by potrace 1.15, written by Peter Selinger 2001-2017
</metadata>
<g transform="translate(0.000000,1280.000000) scale(0.100000,-0.100000)"
fill="rgb(202 77 24 / var(--tw-text-opacity, 1))" stroke="none">
<path d="M4258 12769 c-18 -19 -41 -49 -50 -67 -11 -21 -33 -39 -62 -52 -25
-10 -85 -46 -134 -78 l-88 -60 -165 -11 c-367 -26 -417 -38 -487 -117 -138
-155 -331 -668 -398 -1061 -20 -119 -7 -112 -157 -88 -90 14 -418 39 -667 50
-199 9 -230 14 -230 34 0 9 -6 25 -13 35 -17 23 -126 30 -812 56 -591 22 -746
33 -844 60 -70 20 -105 14 -115 -17 -30 -104 -46 -436 -24 -518 l13 -50 425
-7 c234 -3 583 -13 775 -22 193 -9 396 -16 452 -16 98 0 102 1 121 27 11 15
25 24 33 21 8 -3 43 -54 78 -114 204 -347 253 -425 327 -522 105 -136 237
-328 348 -505 254 -407 421 -559 723 -656 50 -16 100 -34 110 -39 16 -9 15
-11 -9 -23 -36 -16 -44 -40 -19 -60 27 -22 93 -26 726 -44 297 -8 590 -18 651
-21 l111 -6 7 -131 c3 -77 13 -151 22 -177 14 -40 14 -90 -1 -540 -9 -272 -19
-551 -23 -620 l-7 -124 -31 -21 c-48 -32 -226 -92 -339 -114 -55 -11 -181 -25
-280 -31 -192 -12 -217 -18 -191 -40 11 -9 75 -15 209 -20 177 -8 200 -11 292
-40 173 -56 298 -121 315 -165 11 -29 -9 -1100 -21 -1132 -11 -29 -107 -76
-254 -123 -94 -30 -106 -31 -200 -25 -146 10 -354 -22 -384 -59 -22 -27 26
-38 208 -47 313 -16 359 -23 442 -61 41 -20 98 -53 127 -74 l54 -39 -6 -570
c-4 -313 -9 -589 -12 -611 l-6 -41 -106 -51 c-59 -27 -123 -55 -142 -62 -19
-6 -118 -15 -220 -21 -256 -13 -343 -32 -327 -72 16 -42 44 -47 308 -56 275
-10 307 -16 414 -74 l60 -32 7 -235 c8 -236 2 -851 -8 -967 l-6 -62 -66 -36
-67 -35 -143 10 c-221 16 -412 -7 -489 -57 -27 -18 -31 -64 -7 -87 39 -40 217
-65 469 -66 196 -1 228 -8 275 -56 l37 -39 -6 -570 -6 -570 -40 -8 c-22 -5
-164 -12 -315 -16 -247 -6 -281 -9 -335 -29 -57 -21 -115 -68 -115 -94 0 -7
23 -33 51 -60 l51 -48 -34 -57 c-29 -52 -33 -66 -32 -128 3 -174 144 -297 444
-388 135 -41 303 -77 357 -77 21 0 62 -11 91 -25 67 -31 90 -31 150 -1 34 18
83 29 177 41 217 27 444 88 469 127 8 13 6 22 -8 37 -18 20 -39 33 -220 131
-72 39 -77 44 -56 52 12 4 118 17 234 29 243 23 256 25 256 48 0 25 -30 143
-39 155 -4 6 -15 32 -25 58 -10 26 -32 60 -49 74 -39 34 -152 86 -232 109 -33
10 -64 21 -68 25 -5 4 31 36 80 71 133 95 292 259 334 344 33 68 34 72 34 200
0 148 -7 174 -81 287 -99 154 -256 274 -527 403 -92 43 -167 83 -167 87 0 5
26 21 58 35 175 78 347 168 425 223 262 187 370 417 298 633 -72 215 -327 438
-656 572 l-110 44 -5 56 c-3 30 -3 62 0 71 4 10 61 38 136 69 233 94 373 176
496 293 256 243 272 500 47 737 -111 116 -334 256 -561 352 l-88 38 0 65 c0
104 -4 100 138 150 70 25 188 75 262 112 301 150 457 322 468 518 4 70 2 81
-28 140 -49 97 -103 173 -159 221 -45 39 -501 291 -603 333 l-38 15 0 94 c0
75 4 99 18 116 10 13 75 44 158 75 157 60 358 157 444 216 76 52 149 126 171
175 17 38 17 45 3 100 -18 69 -41 98 -104 130 -72 36 -110 43 -372 65 -136 11
-254 23 -262 26 -33 13 -13 518 24 635 11 35 25 106 31 158 6 53 13 99 15 103
3 5 40 8 82 8 42 0 82 4 88 8 6 4 24 28 42 53 37 54 54 67 147 104 l70 28 560
-28 c309 -16 568 -26 577 -23 21 8 71 99 328 588 255 485 318 600 335 606 7 3
37 -2 66 -10 68 -21 163 -20 223 0 33 11 65 15 102 11 62 -6 97 13 108 60 4
16 32 79 64 142 l57 114 0 236 0 236 -38 48 c-21 26 -43 62 -48 80 -5 17 -9
100 -8 182 l3 150 -41 93 c-58 132 -68 145 -103 137 -25 -5 -38 0 -77 34 -88
73 -150 81 -204 25 -18 -20 -50 -44 -70 -54 -38 -20 -55 -49 -99 -168 -13 -35
-29 -66 -36 -69 -7 -2 -110 10 -228 27 -187 28 -220 31 -247 19 -74 -30 -129
-106 -129 -177 0 -21 7 -89 16 -151 l15 -113 -47 -100 -48 -99 -40 6 c-64 10
-231 53 -290 76 -41 15 -56 26 -60 45 -4 14 1 175 10 357 9 183 14 368 11 412
-7 125 -46 197 -113 209 -29 6 -35 13 -46 47 -27 93 -100 128 -451 218 -132
34 -247 66 -258 72 -12 6 -19 20 -19 37 0 37 -17 52 -57 52 l-32 0 25 48 c43
84 11 135 -101 158 -36 8 -80 21 -97 30 -37 19 -83 20 -133 4 -47 -16 -129 -9
-178 15 -22 10 -49 35 -63 56 -34 54 -56 63 -163 63 l-93 1 -12 -35 -11 -35
-68 -3 c-75 -3 -97 7 -97 44 0 32 -27 44 -119 51 l-80 6 -33 -34z m1168 -205
c42 -20 51 -46 27 -86 -28 -48 -41 -45 -68 14 -41 87 -30 106 41 72z m-859
-655 c274 -13 289 -15 285 -52 -8 -62 -128 -387 -143 -387 -5 0 -9 10 -10 23
0 19 -2 18 -16 -11 -16 -30 -16 -33 3 -46 10 -8 17 -17 14 -19 -7 -7 -194 -12
-301 -9 -65 1 -92 6 -108 20 -17 13 -33 61 -70 212 -26 107 -51 214 -55 238
l-6 42 90 0 c49 0 192 -5 317 -11z m2822 -828 l35 -28 -24 -79 c-13 -44 -26
-97 -29 -119 l-6 -40 -57 -3 c-43 -2 -58 0 -58 10 0 8 11 58 25 112 14 54 25
107 25 117 0 10 4 29 9 43 12 30 32 27 80 -13z m-1533 -79 c10 -55 32 -91 62
-104 15 -7 36 -23 47 -36 27 -32 91 -40 135 -17 45 23 117 22 162 -2 20 -11
129 -48 242 -83 121 -38 206 -69 206 -76 0 -30 -67 -29 -440 3 -126 10 -235
14 -342 10 -184 -7 -178 -11 -186 104 -6 90 1 112 40 130 29 12 34 20 41 67
10 58 23 60 33 4z m-3186 -157 c52 -9 109 -20 127 -26 35 -11 35 -12 48 -163
7 -81 26 -132 52 -139 42 -12 93 -18 372 -42 162 -14 300 -30 306 -35 6 -5 19
-32 29 -59 20 -56 44 -83 32 -36 -16 62 -19 90 -8 80 19 -19 43 -125 36 -160
-5 -27 1 -49 23 -97 56 -119 220 -310 304 -353 16 -9 29 -20 29 -25 0 -5 -51
-11 -112 -12 l-113 -3 -83 -160 c-117 -226 -102 -208 -175 -200 -175 19 -294
72 -402 180 -61 61 -87 98 -187 280 -118 214 -188 358 -273 565 -26 63 -76
173 -112 244 -94 188 -92 176 -35 176 26 0 90 -7 142 -15z m3240 -254 c0 -11
-40 -22 -52 -15 -10 6 -11 58 -1 68 8 8 53 -38 53 -53z m325 15 c19 -14 17
-15 -27 -16 -49 0 -61 13 -36 38 12 12 26 7 63 -22z m275 -26 c0 -5 -4 -10
-10 -10 -5 0 -10 5 -10 10 0 6 5 10 10 10 6 0 10 -4 10 -10z"/>
<path d="M4515 11767 c-4 -8 -5 -36 -3 -63 3 -42 6 -49 26 -52 27 -4 132 25
132 37 0 15 -45 21 -78 12 -36 -11 -42 -7 -42 29 0 33 -26 61 -35 37z"/>
<path d="M4330 11745 c-15 -18 -5 -35 21 -35 12 0 19 7 19 19 0 24 -25 34 -40
16z"/>
<path d="M4410 11719 c0 -11 5 -17 10 -14 6 3 10 13 10 21 0 8 -4 14 -10 14
-5 0 -10 -9 -10 -21z"/>
<path d="M4338 11586 c-8 -20 -8 -32 0 -51 15 -32 28 -32 45 1 l13 25 12 -25
c6 -14 18 -26 27 -26 8 0 24 -5 34 -12 15 -9 26 -9 45 0 16 7 28 8 31 2 7 -11
65 -13 89 -4 22 9 20 41 -4 54 -11 6 -33 9 -49 8 -20 -1 -38 6 -54 20 -20 19
-33 22 -78 20 -30 -2 -64 1 -76 5 -19 7 -25 4 -35 -17z"/>
</g>
</svg>
